<svg width="0" height="0" class="hidden">
  <symbol viewBox="0 0 0 0" id="iconsSprite">
    <symbol xmlns="http://www.w3.org/2000/svg" viewBox="0 0 24 24" id="play">
      <path d="M7 6v12l10-6z"></path>
    </symbol>
    <symbol xmlns="http://www.w3.org/2000/svg" fill="none" stroke-width="1.5" stroke="currentColor" viewBox="0 0 24 24" id="eye">
      <path stroke-linecap="round" stroke-linejoin="round" d="M2.036 12.322a1.012 1.012 0 010-.639C3.423 7.51 7.36 4.5 12 4.5c4.638 0 8.573 3.007 9.963 7.178.07.207.07.431 0 .639C20.577 16.49 16.64 19.5 12 19.5c-4.638 0-8.573-3.007-9.963-7.178z"></path>
      <path stroke-linecap="round" stroke-linejoin="round" d="M15 12a3 3 0 11-6 0 3 3 0 016 0z"></path>
    </symbol>
    <symbol xmlns="http://www.w3.org/2000/svg" fill="none" stroke-width="1.5" stroke="currentColor" viewBox="0 0 24 24" id="eye-slash">
      <path stroke-linecap="round" stroke-linejoin="round" d="M3.98 8.223A10.477 10.477 0 001.934 12C3.226 16.338 7.244 19.5 12 19.5c.993 0 1.953-.138 2.863-.395M6.228 6.228A10.45 10.45 0 0112 4.5c4.756 0 8.773 3.162 10.065 7.498a10.523 10.523 0 01-4.293 5.774M6.228 6.228L3 3m3.228 3.228l3.65 3.65m7.894 7.894L21 21m-3.228-3.228l-3.65-3.65m0 0a3 3 0 10-4.243-4.243m4.242 4.242L9.88 9.88"></path>
    </symbol>
    <symbol xmlns="http://www.w3.org/2000/svg" viewBox="0 0 24 24" id="team">
      <path d="M16.604 11.048a5.67 5.67 0 0 0 .751-3.44c-.179-1.784-1.175-3.361-2.803-4.44l-1.105 1.666c1.119.742 1.8 1.799 1.918 2.974a3.693 3.693 0 0 1-1.072 2.986l-1.192 1.192 1.618.475C18.951 13.701 19 17.957 19 18h2c0-1.789-.956-5.285-4.396-6.952z"></path>
      <path d="M9.5 12c2.206 0 4-1.794 4-4s-1.794-4-4-4-4 1.794-4 4 1.794 4 4 4zm0-6c1.103 0 2 .897 2 2s-.897 2-2 2-2-.897-2-2 .897-2 2-2zm1.5 7H8c-3.309 0-6 2.691-6 6v1h2v-1c0-2.206 1.794-4 4-4h3c2.206 0 4 1.794 4 4v1h2v-1c0-3.309-2.691-6-6-6z"></path>
    </symbol>
    <symbol xmlns="http://www.w3.org/2000/svg" viewBox="0 0 24 24" id="report">
      <path d="M5 22h14c1.103 0 2-.897 2-2V5c0-1.103-.897-2-2-2h-2a1 1 0 0 0-1-1H8a1 1 0 0 0-1 1H5c-1.103 0-2 .897-2 2v15c0 1.103.897 2 2 2zM5 5h2v2h10V5h2v15H5V5z"></path>
      <path d="m11 13.586-1.793-1.793-1.414 1.414L11 16.414l5.207-5.207-1.414-1.414z"></path>
    </symbol>
    <symbol xmlns="http://www.w3.org/2000/svg" fill="currentColor" viewBox="0 0 24 24" id="time">
      <path d="M12 2C6.486 2 2 6.486 2 12s4.486 10 10 10 10-4.486 10-10S17.514 2 12 2zm0 18c-4.411 0-8-3.589-8-8s3.589-8 8-8 8 3.589 8 8-3.589 8-8 8z"></path>
      <path d="M13 7h-2v5.414l3.293 3.293 1.414-1.414L13 11.586z"></path>
    </symbol>
    <symbol fill="none" xmlns="http://www.w3.org/2000/svg" viewBox="0 0 56 62" id="task">
      <path d="M49.5833 6.24967H36.695C35.4 2.67301 32.0083 0.0830078 28 0.0830078C23.9917 0.0830078 20.6 2.67301 19.305 6.24967H6.41667C3.025 6.24967 0.25 9.02467 0.25 12.4163V55.583C0.25 58.9747 3.025 61.7497 6.41667 61.7497H49.5833C52.975 61.7497 55.75 58.9747 55.75 55.583V12.4163C55.75 9.02467 52.975 6.24967 49.5833 6.24967ZM28 6.24967C29.6958 6.24967 31.0833 7.63717 31.0833 9.33301C31.0833 11.0288 29.6958 12.4163 28 12.4163C26.3042 12.4163 24.9167 11.0288 24.9167 9.33301C24.9167 7.63717 26.3042 6.24967 28 6.24967ZM21.8333 49.4163L9.5 37.083L13.8475 32.7355L21.8333 40.6905L42.1525 20.3713L46.5 24.7497L21.8333 49.4163Z" fill="white"></path>
    </symbol>
    <symbol xmlns="http://www.w3.org/2000/svg" viewBox="0 0 512 512" id="settings">
      <path d="M262.29 192.31a64 64 0 1057.4 57.4 64.13 64.13 0 00-57.4-57.4zM416.39 256a154.34 154.34 0 01-1.53 20.79l45.21 35.46a10.81 10.81 0 012.45 13.75l-42.77 74a10.81 10.81 0 01-13.14 4.59l-44.9-18.08a16.11 16.11 0 00-15.17 1.75A164.48 164.48 0 01325 400.8a15.94 15.94 0 00-8.82 12.14l-6.73 47.89a11.08 11.08 0 01-10.68 9.17h-85.54a11.11 11.11 0 01-10.69-8.87l-6.72-47.82a16.07 16.07 0 00-9-12.22 155.3 155.3 0 01-21.46-12.57 16 16 0 00-15.11-1.71l-44.89 18.07a10.81 10.81 0 01-13.14-4.58l-42.77-74a10.8 10.8 0 012.45-13.75l38.21-30a16.05 16.05 0 006-14.08c-.36-4.17-.58-8.33-.58-12.5s.21-8.27.58-12.35a16 16 0 00-6.07-13.94l-38.19-30A10.81 10.81 0 0149.48 186l42.77-74a10.81 10.81 0 0113.14-4.59l44.9 18.08a16.11 16.11 0 0015.17-1.75A164.48 164.48 0 01187 111.2a15.94 15.94 0 008.82-12.14l6.73-47.89A11.08 11.08 0 01213.23 42h85.54a11.11 11.11 0 0110.69 8.87l6.72 47.82a16.07 16.07 0 009 12.22 155.3 155.3 0 0121.46 12.57 16 16 0 0015.11 1.71l44.89-18.07a10.81 10.81 0 0113.14 4.58l42.77 74a10.8 10.8 0 01-2.45 13.75l-38.21 30a16.05 16.05 0 00-6.05 14.08c.33 4.14.55 8.3.55 12.47z" fill="none" stroke="currentColor" stroke-linecap="round" stroke-linejoin="round" stroke-width="32"></path>
    </symbol>
    <symbol xmlns="http://www.w3.org/2000/svg" viewBox="0 0 24 24" id="search">
      <path d="M10 18a7.952 7.952 0 0 0 4.897-1.688l4.396 4.396 1.414-1.414-4.396-4.396A7.952 7.952 0 0 0 18 10c0-4.411-3.589-8-8-8s-8 3.589-8 8 3.589 8 8 8zm0-14c3.309 0 6 2.691 6 6s-2.691 6-6 6-6-2.691-6-6 2.691-6 6-6z"></path>
    </symbol>
  </symbol>
  <symbol xmlns="http://www.w3.org/2000/svg" viewBox="0 0 24 24" id="pause">
    <path d="M8 7h3v10H8zm5 0h3v10h-3z"></path>
  </symbol>
</svg>